<svg xmlns="http://www.w3.org/2000/svg" viewBox="0 0 512 512" width="512" height="512">
  <defs>
    <linearGradient id="bgGrad" x1="0%" y1="0%" x2="100%" y2="100%">
      <stop offset="0%" style="stop-color:#1e293b"/>
      <stop offset="100%" style="stop-color:#0f172a"/>
    </linearGradient>
    <linearGradient id="rGrad" x1="0%" y1="0%" x2="100%" y2="100%">
      <stop offset="0%" style="stop-color:#10b981"/>
      <stop offset="100%" style="stop-color:#059669"/>
    </linearGradient>
    <filter id="glow">
      <feGaussianBlur stdDeviation="4" result="blur"/>
      <feComposite in="SourceGraphic" in2="blur" operator="over"/>
    </filter>
  </defs>
  <rect x="16" y="16" width="480" height="480" rx="100" ry="100" fill="url(#bgGrad)" stroke="#334155" stroke-width="4"/>
  <g transform="translate(256, 256)" filter="url(#glow)">
    <path d="M -60,-100 L 20,-100 C 60,-100 80,-80 80,-50 C 80,-20 60,0 20,0 L -20,0 L 40,100 L -10,100 L -60,0 L -60,-100 Z M -20,-70 L -20,-30 L 20,-30 C 35,-30 40,-38 40,-50 C 40,-62 35,-70 20,-70 Z" fill="url(#rGrad)"/>
    <path d="M -50,-90 L 10,-90 C 40,-90 55,-78 55,-55 C 55,-40 45,-25 25,-15 L -15,-15 L 25,60 L -5,60 L -45,-15 L -45,-90 Z M -25,-65 L -25,-35 L 15,-35 C 25,-35 30,-40 30,-50 C 30,-60 25,-65 15,-65 Z" fill="none" stroke="#34d399" stroke-width="1.5" opacity="0.3"/>
  </g>
  <circle cx="420" cy="92" r="6" fill="#10b981" opacity="0.6"/>
  <circle cx="92" cy="420" r="4" fill="#3b82f6" opacity="0.4"/>
</svg>
