<svg xmlns="http://www.w3.org/2000/svg" viewBox="0 0 512 512" width="512" height="512">
  <defs>
    <linearGradient id="bg" x1="0%" y1="0%" x2="100%" y2="100%">
      <stop offset="0%" style="stop-color:#1e293b"/>
      <stop offset="100%" style="stop-color:#0f172a"/>
    </linearGradient>
    <linearGradient id="rg" x1="0%" y1="0%" x2="100%" y2="100%">
      <stop offset="0%" style="stop-color:#10b981"/>
      <stop offset="100%" style="stop-color:#059669"/>
    </linearGradient>
  </defs>
  <rect x="16" y="16" width="480" height="480" rx="100" ry="100" fill="url(#bg)" stroke="#334155" stroke-width="4"/>
  <path d="M196,156 L276,156 C316,156 336,176 336,206 C336,236 316,256 276,256 L236,256 L296,356 L246,356 L196,256 L196,156 Z M236,186 L236,226 L276,226 C291,226 296,218 296,206 C296,194 291,186 276,186 Z" fill="url(#rg)"/>
  <circle cx="420" cy="92" r="6" fill="#10b981" opacity="0.6"/>
</svg>