<?xml version="1.0" encoding="utf-8"?>
<svg version="1.1" xmlns="http://www.w3.org/2000/svg" xmlns:xlink="http://www.w3.org/1999/xlink" x="0px" y="0px"
	 viewBox="0 0 30 30" style="enable-background:new 0 0 30 30;" xml:space="preserve">
<defs>
  <style type="text/css">
    .st194{fill:#2D2D2D;stroke:#FFFFFF;stroke-width:0.6317;stroke-miterlimit:10;}
    .st23{fill:#FFFFFF;}

    .r-breathe {
      animation: breathe 2.5s ease-in-out infinite;
    }

    @keyframes breathe {
      0%, 100% { opacity: 0.7; }
      50% { opacity: 1; }
    }
  </style>
</defs>

<g>
  <path class="st194" d="M24.51,28.51H5.49c-2.21,0-4-1.79-4-4V5.49c0-2.21,1.79-4,4-4h19.03c2.21,0,4,1.79,4,4v19.03
    C28.51,26.72,26.72,28.51,24.51,28.51z"/>
  <g class="r-breathe">
    <!-- R vertical stem (left bar) -->
    <rect class="st23" x="7" y="7" width="2.8" height="16" rx="0.4"/>
    <!-- R bowl (top D-shape) -->
    <path class="st23" d="
      M 9.8,7
      L 17.5,7
      C 20.5,7 23,9.5 23,12
      C 23,14.5 20.5,17 17.5,17
      L 9.8,17
      L 9.8,14.5
      L 17.5,14.5
      C 19.2,14.5 20.5,13.4 20.5,12
      C 20.5,10.6 19.2,9.5 17.5,9.5
      L 9.8,9.5
      Z"/>
    <!-- R diagonal leg -->
    <polygon class="st23" points="9.8,17 14,17 22,22.9 18.8,22.9 12.5,19.2 9.8,19.2"/>
  </g>
</g>
</svg>
